<mxfile host="app.diagrams.net" modified="2024-05-02T17:13:45.159Z" agent="Mozilla/5.0 (X11; Linux x86_64; rv:125.0) Gecko/20100101 Firefox/125.0" etag="LWRj6dZB0AFIamrLiIqj" version="24.3.0" type="device">
  <diagram name="Page-1" id="MUxzJoKTa99FVB-7IIV3">
    <mxGraphModel dx="1553" dy="1100" grid="1" gridSize="10" guides="1" tooltips="1" connect="1" arrows="1" fold="1" page="1" pageScale="1" pageWidth="1200" pageHeight="500" math="0" shadow="0">
      <root>
        <mxCell id="0" />
        <mxCell id="1" parent="0" />
        <mxCell id="ChCWkwDxSLC9hsaqk-i0-134" style="edgeStyle=orthogonalEdgeStyle;rounded=0;orthogonalLoop=1;jettySize=auto;html=1;exitX=0.75;exitY=1;exitDx=0;exitDy=0;entryX=0.5;entryY=0;entryDx=0;entryDy=0;fillColor=#ffe6cc;strokeColor=#d79b00;strokeWidth=4;" edge="1" parent="1" source="ChCWkwDxSLC9hsaqk-i0-3" target="ChCWkwDxSLC9hsaqk-i0-4">
          <mxGeometry relative="1" as="geometry" />
        </mxCell>
        <mxCell id="ChCWkwDxSLC9hsaqk-i0-340" style="edgeStyle=orthogonalEdgeStyle;rounded=0;orthogonalLoop=1;jettySize=auto;html=1;exitX=1.035;exitY=0.926;exitDx=0;exitDy=0;entryX=0.5;entryY=0;entryDx=0;entryDy=0;fillColor=#f5f5f5;gradientColor=#b3b3b3;strokeColor=#666666;strokeWidth=4;exitPerimeter=0;" edge="1" parent="1" source="ChCWkwDxSLC9hsaqk-i0-3" target="ChCWkwDxSLC9hsaqk-i0-309">
          <mxGeometry relative="1" as="geometry">
            <Array as="points">
              <mxPoint x="178" y="188" />
              <mxPoint x="178" y="165" />
            </Array>
          </mxGeometry>
        </mxCell>
        <mxCell id="ChCWkwDxSLC9hsaqk-i0-3" value="" style="rounded=0;whiteSpace=wrap;html=1;fillColor=#fff2cc;strokeColor=#d6b656;" vertex="1" parent="1">
          <mxGeometry x="138" y="40" width="40" height="160" as="geometry" />
        </mxCell>
        <mxCell id="ChCWkwDxSLC9hsaqk-i0-167" value="" style="group" vertex="1" connectable="0" parent="1">
          <mxGeometry x="158" y="440" width="120" height="160" as="geometry" />
        </mxCell>
        <mxCell id="ChCWkwDxSLC9hsaqk-i0-12" value="" style="group;fillColor=#fff2cc;strokeColor=#d6b656;" vertex="1" connectable="0" parent="ChCWkwDxSLC9hsaqk-i0-167">
          <mxGeometry width="60" height="80" as="geometry" />
        </mxCell>
        <mxCell id="ChCWkwDxSLC9hsaqk-i0-8" value="" style="rounded=0;whiteSpace=wrap;html=1;fillColor=#fff2cc;strokeColor=#d6b656;" vertex="1" parent="ChCWkwDxSLC9hsaqk-i0-12">
          <mxGeometry width="30" height="40" as="geometry" />
        </mxCell>
        <mxCell id="ChCWkwDxSLC9hsaqk-i0-9" value="" style="rounded=0;whiteSpace=wrap;html=1;fillColor=#fff2cc;strokeColor=#d6b656;" vertex="1" parent="ChCWkwDxSLC9hsaqk-i0-12">
          <mxGeometry x="30" width="30" height="40" as="geometry" />
        </mxCell>
        <mxCell id="ChCWkwDxSLC9hsaqk-i0-10" value="" style="rounded=0;whiteSpace=wrap;html=1;fillColor=#fff2cc;strokeColor=#d6b656;" vertex="1" parent="ChCWkwDxSLC9hsaqk-i0-12">
          <mxGeometry y="40" width="30" height="40" as="geometry" />
        </mxCell>
        <mxCell id="ChCWkwDxSLC9hsaqk-i0-11" value="" style="rounded=0;whiteSpace=wrap;html=1;fillColor=#fff2cc;strokeColor=#d6b656;" vertex="1" parent="ChCWkwDxSLC9hsaqk-i0-12">
          <mxGeometry x="30" y="40" width="30" height="40" as="geometry" />
        </mxCell>
        <mxCell id="ChCWkwDxSLC9hsaqk-i0-13" value="" style="group;fillColor=#fff2cc;strokeColor=#d6b656;" vertex="1" connectable="0" parent="ChCWkwDxSLC9hsaqk-i0-167">
          <mxGeometry x="60" width="60" height="80" as="geometry" />
        </mxCell>
        <mxCell id="ChCWkwDxSLC9hsaqk-i0-14" value="" style="rounded=0;whiteSpace=wrap;html=1;fillColor=#fff2cc;strokeColor=#d6b656;" vertex="1" parent="ChCWkwDxSLC9hsaqk-i0-13">
          <mxGeometry width="30" height="40" as="geometry" />
        </mxCell>
        <mxCell id="ChCWkwDxSLC9hsaqk-i0-15" value="" style="rounded=0;whiteSpace=wrap;html=1;fillColor=#fff2cc;strokeColor=#d6b656;" vertex="1" parent="ChCWkwDxSLC9hsaqk-i0-13">
          <mxGeometry x="30" width="30" height="40" as="geometry" />
        </mxCell>
        <mxCell id="ChCWkwDxSLC9hsaqk-i0-16" value="" style="rounded=0;whiteSpace=wrap;html=1;fillColor=#fff2cc;strokeColor=#d6b656;" vertex="1" parent="ChCWkwDxSLC9hsaqk-i0-13">
          <mxGeometry y="40" width="30" height="40" as="geometry" />
        </mxCell>
        <mxCell id="ChCWkwDxSLC9hsaqk-i0-17" value="" style="rounded=0;whiteSpace=wrap;html=1;fillColor=#fff2cc;strokeColor=#d6b656;" vertex="1" parent="ChCWkwDxSLC9hsaqk-i0-13">
          <mxGeometry x="30" y="40" width="30" height="40" as="geometry" />
        </mxCell>
        <mxCell id="ChCWkwDxSLC9hsaqk-i0-18" value="" style="group;fillColor=#fff2cc;strokeColor=#d6b656;" vertex="1" connectable="0" parent="ChCWkwDxSLC9hsaqk-i0-167">
          <mxGeometry y="80" width="60" height="80" as="geometry" />
        </mxCell>
        <mxCell id="ChCWkwDxSLC9hsaqk-i0-19" value="" style="rounded=0;whiteSpace=wrap;html=1;fillColor=#fff2cc;strokeColor=#d6b656;" vertex="1" parent="ChCWkwDxSLC9hsaqk-i0-18">
          <mxGeometry width="30" height="40" as="geometry" />
        </mxCell>
        <mxCell id="ChCWkwDxSLC9hsaqk-i0-20" value="" style="rounded=0;whiteSpace=wrap;html=1;fillColor=#fff2cc;strokeColor=#d6b656;" vertex="1" parent="ChCWkwDxSLC9hsaqk-i0-18">
          <mxGeometry x="30" width="30" height="40" as="geometry" />
        </mxCell>
        <mxCell id="ChCWkwDxSLC9hsaqk-i0-21" value="" style="rounded=0;whiteSpace=wrap;html=1;fillColor=#fff2cc;strokeColor=#d6b656;" vertex="1" parent="ChCWkwDxSLC9hsaqk-i0-18">
          <mxGeometry y="40" width="30" height="40" as="geometry" />
        </mxCell>
        <mxCell id="ChCWkwDxSLC9hsaqk-i0-22" value="" style="rounded=0;whiteSpace=wrap;html=1;fillColor=#fff2cc;strokeColor=#d6b656;" vertex="1" parent="ChCWkwDxSLC9hsaqk-i0-18">
          <mxGeometry x="30" y="40" width="30" height="40" as="geometry" />
        </mxCell>
        <mxCell id="ChCWkwDxSLC9hsaqk-i0-23" value="" style="group;fillColor=#fff2cc;strokeColor=#d6b656;" vertex="1" connectable="0" parent="ChCWkwDxSLC9hsaqk-i0-167">
          <mxGeometry x="60" y="80" width="60" height="80" as="geometry" />
        </mxCell>
        <mxCell id="ChCWkwDxSLC9hsaqk-i0-24" value="" style="rounded=0;whiteSpace=wrap;html=1;fillColor=#fff2cc;strokeColor=#d6b656;" vertex="1" parent="ChCWkwDxSLC9hsaqk-i0-23">
          <mxGeometry width="30" height="40" as="geometry" />
        </mxCell>
        <mxCell id="ChCWkwDxSLC9hsaqk-i0-25" value="" style="rounded=0;whiteSpace=wrap;html=1;fillColor=#fff2cc;strokeColor=#d6b656;" vertex="1" parent="ChCWkwDxSLC9hsaqk-i0-23">
          <mxGeometry x="30" width="30" height="40" as="geometry" />
        </mxCell>
        <mxCell id="ChCWkwDxSLC9hsaqk-i0-26" value="" style="rounded=0;whiteSpace=wrap;html=1;fillColor=#fff2cc;strokeColor=#d6b656;" vertex="1" parent="ChCWkwDxSLC9hsaqk-i0-23">
          <mxGeometry y="40" width="30" height="40" as="geometry" />
        </mxCell>
        <mxCell id="ChCWkwDxSLC9hsaqk-i0-27" value="" style="rounded=0;whiteSpace=wrap;html=1;fillColor=#fff2cc;strokeColor=#d6b656;" vertex="1" parent="ChCWkwDxSLC9hsaqk-i0-23">
          <mxGeometry x="30" y="40" width="30" height="40" as="geometry" />
        </mxCell>
        <mxCell id="ChCWkwDxSLC9hsaqk-i0-168" value="" style="group" vertex="1" connectable="0" parent="1">
          <mxGeometry x="168" y="640" width="160" height="160" as="geometry" />
        </mxCell>
        <mxCell id="ChCWkwDxSLC9hsaqk-i0-48" value="" style="group;fillColor=#fff2cc;strokeColor=#d6b656;" vertex="1" connectable="0" parent="ChCWkwDxSLC9hsaqk-i0-168">
          <mxGeometry width="80" height="80" as="geometry" />
        </mxCell>
        <mxCell id="ChCWkwDxSLC9hsaqk-i0-28" value="" style="group;fillColor=#fff2cc;strokeColor=#d6b656;" vertex="1" connectable="0" parent="ChCWkwDxSLC9hsaqk-i0-48">
          <mxGeometry width="40" height="40" as="geometry" />
        </mxCell>
        <mxCell id="ChCWkwDxSLC9hsaqk-i0-29" value="" style="rounded=0;whiteSpace=wrap;html=1;fillColor=#fff2cc;strokeColor=#d6b656;" vertex="1" parent="ChCWkwDxSLC9hsaqk-i0-28">
          <mxGeometry width="20" height="20" as="geometry" />
        </mxCell>
        <mxCell id="ChCWkwDxSLC9hsaqk-i0-30" value="" style="rounded=0;whiteSpace=wrap;html=1;fillColor=#fff2cc;strokeColor=#d6b656;" vertex="1" parent="ChCWkwDxSLC9hsaqk-i0-28">
          <mxGeometry x="20" width="20" height="20" as="geometry" />
        </mxCell>
        <mxCell id="ChCWkwDxSLC9hsaqk-i0-31" value="" style="rounded=0;whiteSpace=wrap;html=1;fillColor=#fff2cc;strokeColor=#d6b656;" vertex="1" parent="ChCWkwDxSLC9hsaqk-i0-28">
          <mxGeometry y="20" width="20" height="20" as="geometry" />
        </mxCell>
        <mxCell id="ChCWkwDxSLC9hsaqk-i0-32" value="" style="rounded=0;whiteSpace=wrap;html=1;fillColor=#fff2cc;strokeColor=#d6b656;" vertex="1" parent="ChCWkwDxSLC9hsaqk-i0-28">
          <mxGeometry x="20" y="20" width="20" height="20" as="geometry" />
        </mxCell>
        <mxCell id="ChCWkwDxSLC9hsaqk-i0-33" value="" style="group;fillColor=#fff2cc;strokeColor=#d6b656;" vertex="1" connectable="0" parent="ChCWkwDxSLC9hsaqk-i0-48">
          <mxGeometry x="40" width="40" height="40" as="geometry" />
        </mxCell>
        <mxCell id="ChCWkwDxSLC9hsaqk-i0-34" value="" style="rounded=0;whiteSpace=wrap;html=1;fillColor=#fff2cc;strokeColor=#d6b656;" vertex="1" parent="ChCWkwDxSLC9hsaqk-i0-33">
          <mxGeometry width="20" height="20" as="geometry" />
        </mxCell>
        <mxCell id="ChCWkwDxSLC9hsaqk-i0-35" value="" style="rounded=0;whiteSpace=wrap;html=1;fillColor=#fff2cc;strokeColor=#d6b656;" vertex="1" parent="ChCWkwDxSLC9hsaqk-i0-33">
          <mxGeometry x="20" width="20" height="20" as="geometry" />
        </mxCell>
        <mxCell id="ChCWkwDxSLC9hsaqk-i0-36" value="" style="rounded=0;whiteSpace=wrap;html=1;fillColor=#fff2cc;strokeColor=#d6b656;" vertex="1" parent="ChCWkwDxSLC9hsaqk-i0-33">
          <mxGeometry y="20" width="20" height="20" as="geometry" />
        </mxCell>
        <mxCell id="ChCWkwDxSLC9hsaqk-i0-37" value="" style="rounded=0;whiteSpace=wrap;html=1;fillColor=#fff2cc;strokeColor=#d6b656;" vertex="1" parent="ChCWkwDxSLC9hsaqk-i0-33">
          <mxGeometry x="20" y="20" width="20" height="20" as="geometry" />
        </mxCell>
        <mxCell id="ChCWkwDxSLC9hsaqk-i0-38" value="" style="group;fillColor=#fff2cc;strokeColor=#d6b656;" vertex="1" connectable="0" parent="ChCWkwDxSLC9hsaqk-i0-48">
          <mxGeometry y="40" width="40" height="40" as="geometry" />
        </mxCell>
        <mxCell id="ChCWkwDxSLC9hsaqk-i0-39" value="" style="rounded=0;whiteSpace=wrap;html=1;fillColor=#fff2cc;strokeColor=#d6b656;" vertex="1" parent="ChCWkwDxSLC9hsaqk-i0-38">
          <mxGeometry width="20" height="20" as="geometry" />
        </mxCell>
        <mxCell id="ChCWkwDxSLC9hsaqk-i0-40" value="" style="rounded=0;whiteSpace=wrap;html=1;fillColor=#fff2cc;strokeColor=#d6b656;" vertex="1" parent="ChCWkwDxSLC9hsaqk-i0-38">
          <mxGeometry x="20" width="20" height="20" as="geometry" />
        </mxCell>
        <mxCell id="ChCWkwDxSLC9hsaqk-i0-41" value="" style="rounded=0;whiteSpace=wrap;html=1;fillColor=#fff2cc;strokeColor=#d6b656;" vertex="1" parent="ChCWkwDxSLC9hsaqk-i0-38">
          <mxGeometry y="20" width="20" height="20" as="geometry" />
        </mxCell>
        <mxCell id="ChCWkwDxSLC9hsaqk-i0-42" value="" style="rounded=0;whiteSpace=wrap;html=1;fillColor=#fff2cc;strokeColor=#d6b656;" vertex="1" parent="ChCWkwDxSLC9hsaqk-i0-38">
          <mxGeometry x="20" y="20" width="20" height="20" as="geometry" />
        </mxCell>
        <mxCell id="ChCWkwDxSLC9hsaqk-i0-43" value="" style="group;fillColor=#fff2cc;strokeColor=#d6b656;" vertex="1" connectable="0" parent="ChCWkwDxSLC9hsaqk-i0-48">
          <mxGeometry x="40" y="40" width="40" height="40" as="geometry" />
        </mxCell>
        <mxCell id="ChCWkwDxSLC9hsaqk-i0-44" value="" style="rounded=0;whiteSpace=wrap;html=1;fillColor=#fff2cc;strokeColor=#d6b656;" vertex="1" parent="ChCWkwDxSLC9hsaqk-i0-43">
          <mxGeometry width="20" height="20" as="geometry" />
        </mxCell>
        <mxCell id="ChCWkwDxSLC9hsaqk-i0-45" value="" style="rounded=0;whiteSpace=wrap;html=1;fillColor=#fff2cc;strokeColor=#d6b656;" vertex="1" parent="ChCWkwDxSLC9hsaqk-i0-43">
          <mxGeometry x="20" width="20" height="20" as="geometry" />
        </mxCell>
        <mxCell id="ChCWkwDxSLC9hsaqk-i0-46" value="" style="rounded=0;whiteSpace=wrap;html=1;fillColor=#fff2cc;strokeColor=#d6b656;" vertex="1" parent="ChCWkwDxSLC9hsaqk-i0-43">
          <mxGeometry y="20" width="20" height="20" as="geometry" />
        </mxCell>
        <mxCell id="ChCWkwDxSLC9hsaqk-i0-47" value="" style="rounded=0;whiteSpace=wrap;html=1;fillColor=#fff2cc;strokeColor=#d6b656;" vertex="1" parent="ChCWkwDxSLC9hsaqk-i0-43">
          <mxGeometry x="20" y="20" width="20" height="20" as="geometry" />
        </mxCell>
        <mxCell id="ChCWkwDxSLC9hsaqk-i0-71" value="" style="group;fillColor=#fff2cc;strokeColor=#d6b656;" vertex="1" connectable="0" parent="ChCWkwDxSLC9hsaqk-i0-168">
          <mxGeometry x="80" width="80" height="80" as="geometry" />
        </mxCell>
        <mxCell id="ChCWkwDxSLC9hsaqk-i0-72" value="" style="group;fillColor=#fff2cc;strokeColor=#d6b656;" vertex="1" connectable="0" parent="ChCWkwDxSLC9hsaqk-i0-71">
          <mxGeometry width="40" height="40" as="geometry" />
        </mxCell>
        <mxCell id="ChCWkwDxSLC9hsaqk-i0-73" value="" style="rounded=0;whiteSpace=wrap;html=1;fillColor=#fff2cc;strokeColor=#d6b656;" vertex="1" parent="ChCWkwDxSLC9hsaqk-i0-72">
          <mxGeometry width="20" height="20" as="geometry" />
        </mxCell>
        <mxCell id="ChCWkwDxSLC9hsaqk-i0-74" value="" style="rounded=0;whiteSpace=wrap;html=1;fillColor=#fff2cc;strokeColor=#d6b656;" vertex="1" parent="ChCWkwDxSLC9hsaqk-i0-72">
          <mxGeometry x="20" width="20" height="20" as="geometry" />
        </mxCell>
        <mxCell id="ChCWkwDxSLC9hsaqk-i0-75" value="" style="rounded=0;whiteSpace=wrap;html=1;fillColor=#fff2cc;strokeColor=#d6b656;" vertex="1" parent="ChCWkwDxSLC9hsaqk-i0-72">
          <mxGeometry y="20" width="20" height="20" as="geometry" />
        </mxCell>
        <mxCell id="ChCWkwDxSLC9hsaqk-i0-76" value="" style="rounded=0;whiteSpace=wrap;html=1;fillColor=#fff2cc;strokeColor=#d6b656;" vertex="1" parent="ChCWkwDxSLC9hsaqk-i0-72">
          <mxGeometry x="20" y="20" width="20" height="20" as="geometry" />
        </mxCell>
        <mxCell id="ChCWkwDxSLC9hsaqk-i0-77" value="" style="group;fillColor=#fff2cc;strokeColor=#d6b656;" vertex="1" connectable="0" parent="ChCWkwDxSLC9hsaqk-i0-71">
          <mxGeometry x="40" width="40" height="40" as="geometry" />
        </mxCell>
        <mxCell id="ChCWkwDxSLC9hsaqk-i0-78" value="" style="rounded=0;whiteSpace=wrap;html=1;fillColor=#fff2cc;strokeColor=#d6b656;" vertex="1" parent="ChCWkwDxSLC9hsaqk-i0-77">
          <mxGeometry width="20" height="20" as="geometry" />
        </mxCell>
        <mxCell id="ChCWkwDxSLC9hsaqk-i0-79" value="" style="rounded=0;whiteSpace=wrap;html=1;fillColor=#fff2cc;strokeColor=#d6b656;" vertex="1" parent="ChCWkwDxSLC9hsaqk-i0-77">
          <mxGeometry x="20" width="20" height="20" as="geometry" />
        </mxCell>
        <mxCell id="ChCWkwDxSLC9hsaqk-i0-80" value="" style="rounded=0;whiteSpace=wrap;html=1;fillColor=#fff2cc;strokeColor=#d6b656;" vertex="1" parent="ChCWkwDxSLC9hsaqk-i0-77">
          <mxGeometry y="20" width="20" height="20" as="geometry" />
        </mxCell>
        <mxCell id="ChCWkwDxSLC9hsaqk-i0-81" value="" style="rounded=0;whiteSpace=wrap;html=1;fillColor=#fff2cc;strokeColor=#d6b656;" vertex="1" parent="ChCWkwDxSLC9hsaqk-i0-77">
          <mxGeometry x="20" y="20" width="20" height="20" as="geometry" />
        </mxCell>
        <mxCell id="ChCWkwDxSLC9hsaqk-i0-82" value="" style="group;fillColor=#fff2cc;strokeColor=#d6b656;" vertex="1" connectable="0" parent="ChCWkwDxSLC9hsaqk-i0-71">
          <mxGeometry y="40" width="40" height="40" as="geometry" />
        </mxCell>
        <mxCell id="ChCWkwDxSLC9hsaqk-i0-83" value="" style="rounded=0;whiteSpace=wrap;html=1;fillColor=#fff2cc;strokeColor=#d6b656;" vertex="1" parent="ChCWkwDxSLC9hsaqk-i0-82">
          <mxGeometry width="20" height="20" as="geometry" />
        </mxCell>
        <mxCell id="ChCWkwDxSLC9hsaqk-i0-84" value="" style="rounded=0;whiteSpace=wrap;html=1;fillColor=#fff2cc;strokeColor=#d6b656;" vertex="1" parent="ChCWkwDxSLC9hsaqk-i0-82">
          <mxGeometry x="20" width="20" height="20" as="geometry" />
        </mxCell>
        <mxCell id="ChCWkwDxSLC9hsaqk-i0-85" value="" style="rounded=0;whiteSpace=wrap;html=1;fillColor=#fff2cc;strokeColor=#d6b656;" vertex="1" parent="ChCWkwDxSLC9hsaqk-i0-82">
          <mxGeometry y="20" width="20" height="20" as="geometry" />
        </mxCell>
        <mxCell id="ChCWkwDxSLC9hsaqk-i0-86" value="" style="rounded=0;whiteSpace=wrap;html=1;fillColor=#fff2cc;strokeColor=#d6b656;" vertex="1" parent="ChCWkwDxSLC9hsaqk-i0-82">
          <mxGeometry x="20" y="20" width="20" height="20" as="geometry" />
        </mxCell>
        <mxCell id="ChCWkwDxSLC9hsaqk-i0-87" value="" style="group;fillColor=#fff2cc;strokeColor=#d6b656;" vertex="1" connectable="0" parent="ChCWkwDxSLC9hsaqk-i0-71">
          <mxGeometry x="40" y="40" width="40" height="40" as="geometry" />
        </mxCell>
        <mxCell id="ChCWkwDxSLC9hsaqk-i0-88" value="" style="rounded=0;whiteSpace=wrap;html=1;fillColor=#fff2cc;strokeColor=#d6b656;" vertex="1" parent="ChCWkwDxSLC9hsaqk-i0-87">
          <mxGeometry width="20" height="20" as="geometry" />
        </mxCell>
        <mxCell id="ChCWkwDxSLC9hsaqk-i0-89" value="" style="rounded=0;whiteSpace=wrap;html=1;fillColor=#fff2cc;strokeColor=#d6b656;" vertex="1" parent="ChCWkwDxSLC9hsaqk-i0-87">
          <mxGeometry x="20" width="20" height="20" as="geometry" />
        </mxCell>
        <mxCell id="ChCWkwDxSLC9hsaqk-i0-90" value="" style="rounded=0;whiteSpace=wrap;html=1;fillColor=#fff2cc;strokeColor=#d6b656;" vertex="1" parent="ChCWkwDxSLC9hsaqk-i0-87">
          <mxGeometry y="20" width="20" height="20" as="geometry" />
        </mxCell>
        <mxCell id="ChCWkwDxSLC9hsaqk-i0-91" value="" style="rounded=0;whiteSpace=wrap;html=1;fillColor=#fff2cc;strokeColor=#d6b656;" vertex="1" parent="ChCWkwDxSLC9hsaqk-i0-87">
          <mxGeometry x="20" y="20" width="20" height="20" as="geometry" />
        </mxCell>
        <mxCell id="ChCWkwDxSLC9hsaqk-i0-92" value="" style="group;fillColor=#fff2cc;strokeColor=#d6b656;" vertex="1" connectable="0" parent="ChCWkwDxSLC9hsaqk-i0-168">
          <mxGeometry y="80" width="80" height="80" as="geometry" />
        </mxCell>
        <mxCell id="ChCWkwDxSLC9hsaqk-i0-93" value="" style="group;fillColor=#fff2cc;strokeColor=#d6b656;" vertex="1" connectable="0" parent="ChCWkwDxSLC9hsaqk-i0-92">
          <mxGeometry width="40" height="40" as="geometry" />
        </mxCell>
        <mxCell id="ChCWkwDxSLC9hsaqk-i0-94" value="" style="rounded=0;whiteSpace=wrap;html=1;fillColor=#fff2cc;strokeColor=#d6b656;" vertex="1" parent="ChCWkwDxSLC9hsaqk-i0-93">
          <mxGeometry width="20" height="20" as="geometry" />
        </mxCell>
        <mxCell id="ChCWkwDxSLC9hsaqk-i0-95" value="" style="rounded=0;whiteSpace=wrap;html=1;fillColor=#fff2cc;strokeColor=#d6b656;" vertex="1" parent="ChCWkwDxSLC9hsaqk-i0-93">
          <mxGeometry x="20" width="20" height="20" as="geometry" />
        </mxCell>
        <mxCell id="ChCWkwDxSLC9hsaqk-i0-96" value="" style="rounded=0;whiteSpace=wrap;html=1;fillColor=#fff2cc;strokeColor=#d6b656;" vertex="1" parent="ChCWkwDxSLC9hsaqk-i0-93">
          <mxGeometry y="20" width="20" height="20" as="geometry" />
        </mxCell>
        <mxCell id="ChCWkwDxSLC9hsaqk-i0-97" value="" style="rounded=0;whiteSpace=wrap;html=1;fillColor=#fff2cc;strokeColor=#d6b656;" vertex="1" parent="ChCWkwDxSLC9hsaqk-i0-93">
          <mxGeometry x="20" y="20" width="20" height="20" as="geometry" />
        </mxCell>
        <mxCell id="ChCWkwDxSLC9hsaqk-i0-98" value="" style="group;fillColor=#fff2cc;strokeColor=#d6b656;" vertex="1" connectable="0" parent="ChCWkwDxSLC9hsaqk-i0-92">
          <mxGeometry x="40" width="40" height="40" as="geometry" />
        </mxCell>
        <mxCell id="ChCWkwDxSLC9hsaqk-i0-99" value="" style="rounded=0;whiteSpace=wrap;html=1;fillColor=#fff2cc;strokeColor=#d6b656;" vertex="1" parent="ChCWkwDxSLC9hsaqk-i0-98">
          <mxGeometry width="20" height="20" as="geometry" />
        </mxCell>
        <mxCell id="ChCWkwDxSLC9hsaqk-i0-100" value="" style="rounded=0;whiteSpace=wrap;html=1;fillColor=#fff2cc;strokeColor=#d6b656;" vertex="1" parent="ChCWkwDxSLC9hsaqk-i0-98">
          <mxGeometry x="20" width="20" height="20" as="geometry" />
        </mxCell>
        <mxCell id="ChCWkwDxSLC9hsaqk-i0-101" value="" style="rounded=0;whiteSpace=wrap;html=1;fillColor=#fff2cc;strokeColor=#d6b656;" vertex="1" parent="ChCWkwDxSLC9hsaqk-i0-98">
          <mxGeometry y="20" width="20" height="20" as="geometry" />
        </mxCell>
        <mxCell id="ChCWkwDxSLC9hsaqk-i0-102" value="" style="rounded=0;whiteSpace=wrap;html=1;fillColor=#fff2cc;strokeColor=#d6b656;" vertex="1" parent="ChCWkwDxSLC9hsaqk-i0-98">
          <mxGeometry x="20" y="20" width="20" height="20" as="geometry" />
        </mxCell>
        <mxCell id="ChCWkwDxSLC9hsaqk-i0-103" value="" style="group;fillColor=#fff2cc;strokeColor=#d6b656;" vertex="1" connectable="0" parent="ChCWkwDxSLC9hsaqk-i0-92">
          <mxGeometry y="40" width="40" height="40" as="geometry" />
        </mxCell>
        <mxCell id="ChCWkwDxSLC9hsaqk-i0-104" value="" style="rounded=0;whiteSpace=wrap;html=1;fillColor=#fff2cc;strokeColor=#d6b656;" vertex="1" parent="ChCWkwDxSLC9hsaqk-i0-103">
          <mxGeometry width="20" height="20" as="geometry" />
        </mxCell>
        <mxCell id="ChCWkwDxSLC9hsaqk-i0-105" value="" style="rounded=0;whiteSpace=wrap;html=1;fillColor=#fff2cc;strokeColor=#d6b656;" vertex="1" parent="ChCWkwDxSLC9hsaqk-i0-103">
          <mxGeometry x="20" width="20" height="20" as="geometry" />
        </mxCell>
        <mxCell id="ChCWkwDxSLC9hsaqk-i0-106" value="" style="rounded=0;whiteSpace=wrap;html=1;fillColor=#fff2cc;strokeColor=#d6b656;" vertex="1" parent="ChCWkwDxSLC9hsaqk-i0-103">
          <mxGeometry y="20" width="20" height="20" as="geometry" />
        </mxCell>
        <mxCell id="ChCWkwDxSLC9hsaqk-i0-107" value="" style="rounded=0;whiteSpace=wrap;html=1;fillColor=#fff2cc;strokeColor=#d6b656;" vertex="1" parent="ChCWkwDxSLC9hsaqk-i0-103">
          <mxGeometry x="20" y="20" width="20" height="20" as="geometry" />
        </mxCell>
        <mxCell id="ChCWkwDxSLC9hsaqk-i0-108" value="" style="group;fillColor=#fff2cc;strokeColor=#d6b656;" vertex="1" connectable="0" parent="ChCWkwDxSLC9hsaqk-i0-92">
          <mxGeometry x="40" y="40" width="40" height="40" as="geometry" />
        </mxCell>
        <mxCell id="ChCWkwDxSLC9hsaqk-i0-109" value="" style="rounded=0;whiteSpace=wrap;html=1;fillColor=#fff2cc;strokeColor=#d6b656;" vertex="1" parent="ChCWkwDxSLC9hsaqk-i0-108">
          <mxGeometry width="20" height="20" as="geometry" />
        </mxCell>
        <mxCell id="ChCWkwDxSLC9hsaqk-i0-110" value="" style="rounded=0;whiteSpace=wrap;html=1;fillColor=#fff2cc;strokeColor=#d6b656;" vertex="1" parent="ChCWkwDxSLC9hsaqk-i0-108">
          <mxGeometry x="20" width="20" height="20" as="geometry" />
        </mxCell>
        <mxCell id="ChCWkwDxSLC9hsaqk-i0-111" value="" style="rounded=0;whiteSpace=wrap;html=1;fillColor=#fff2cc;strokeColor=#d6b656;" vertex="1" parent="ChCWkwDxSLC9hsaqk-i0-108">
          <mxGeometry y="20" width="20" height="20" as="geometry" />
        </mxCell>
        <mxCell id="ChCWkwDxSLC9hsaqk-i0-112" value="" style="rounded=0;whiteSpace=wrap;html=1;fillColor=#fff2cc;strokeColor=#d6b656;" vertex="1" parent="ChCWkwDxSLC9hsaqk-i0-108">
          <mxGeometry x="20" y="20" width="20" height="20" as="geometry" />
        </mxCell>
        <mxCell id="ChCWkwDxSLC9hsaqk-i0-113" value="" style="group;fillColor=#fff2cc;strokeColor=#d6b656;" vertex="1" connectable="0" parent="ChCWkwDxSLC9hsaqk-i0-168">
          <mxGeometry x="80" y="80" width="80" height="80" as="geometry" />
        </mxCell>
        <mxCell id="ChCWkwDxSLC9hsaqk-i0-114" value="" style="group;fillColor=#fff2cc;strokeColor=#d6b656;" vertex="1" connectable="0" parent="ChCWkwDxSLC9hsaqk-i0-113">
          <mxGeometry width="40" height="40" as="geometry" />
        </mxCell>
        <mxCell id="ChCWkwDxSLC9hsaqk-i0-115" value="" style="rounded=0;whiteSpace=wrap;html=1;fillColor=#fff2cc;strokeColor=#d6b656;" vertex="1" parent="ChCWkwDxSLC9hsaqk-i0-114">
          <mxGeometry width="20" height="20" as="geometry" />
        </mxCell>
        <mxCell id="ChCWkwDxSLC9hsaqk-i0-116" value="" style="rounded=0;whiteSpace=wrap;html=1;fillColor=#fff2cc;strokeColor=#d6b656;" vertex="1" parent="ChCWkwDxSLC9hsaqk-i0-114">
          <mxGeometry x="20" width="20" height="20" as="geometry" />
        </mxCell>
        <mxCell id="ChCWkwDxSLC9hsaqk-i0-117" value="" style="rounded=0;whiteSpace=wrap;html=1;fillColor=#fff2cc;strokeColor=#d6b656;" vertex="1" parent="ChCWkwDxSLC9hsaqk-i0-114">
          <mxGeometry y="20" width="20" height="20" as="geometry" />
        </mxCell>
        <mxCell id="ChCWkwDxSLC9hsaqk-i0-118" value="" style="rounded=0;whiteSpace=wrap;html=1;fillColor=#fff2cc;strokeColor=#d6b656;" vertex="1" parent="ChCWkwDxSLC9hsaqk-i0-114">
          <mxGeometry x="20" y="20" width="20" height="20" as="geometry" />
        </mxCell>
        <mxCell id="ChCWkwDxSLC9hsaqk-i0-119" value="" style="group;fillColor=#fff2cc;strokeColor=#d6b656;" vertex="1" connectable="0" parent="ChCWkwDxSLC9hsaqk-i0-113">
          <mxGeometry x="40" width="40" height="40" as="geometry" />
        </mxCell>
        <mxCell id="ChCWkwDxSLC9hsaqk-i0-120" value="" style="rounded=0;whiteSpace=wrap;html=1;fillColor=#fff2cc;strokeColor=#d6b656;" vertex="1" parent="ChCWkwDxSLC9hsaqk-i0-119">
          <mxGeometry width="20" height="20" as="geometry" />
        </mxCell>
        <mxCell id="ChCWkwDxSLC9hsaqk-i0-121" value="" style="rounded=0;whiteSpace=wrap;html=1;fillColor=#fff2cc;strokeColor=#d6b656;" vertex="1" parent="ChCWkwDxSLC9hsaqk-i0-119">
          <mxGeometry x="20" width="20" height="20" as="geometry" />
        </mxCell>
        <mxCell id="ChCWkwDxSLC9hsaqk-i0-122" value="" style="rounded=0;whiteSpace=wrap;html=1;fillColor=#fff2cc;strokeColor=#d6b656;" vertex="1" parent="ChCWkwDxSLC9hsaqk-i0-119">
          <mxGeometry y="20" width="20" height="20" as="geometry" />
        </mxCell>
        <mxCell id="ChCWkwDxSLC9hsaqk-i0-123" value="" style="rounded=0;whiteSpace=wrap;html=1;fillColor=#fff2cc;strokeColor=#d6b656;" vertex="1" parent="ChCWkwDxSLC9hsaqk-i0-119">
          <mxGeometry x="20" y="20" width="20" height="20" as="geometry" />
        </mxCell>
        <mxCell id="ChCWkwDxSLC9hsaqk-i0-124" value="" style="group;fillColor=#fff2cc;strokeColor=#d6b656;" vertex="1" connectable="0" parent="ChCWkwDxSLC9hsaqk-i0-113">
          <mxGeometry y="40" width="40" height="40" as="geometry" />
        </mxCell>
        <mxCell id="ChCWkwDxSLC9hsaqk-i0-125" value="" style="rounded=0;whiteSpace=wrap;html=1;fillColor=#fff2cc;strokeColor=#d6b656;" vertex="1" parent="ChCWkwDxSLC9hsaqk-i0-124">
          <mxGeometry width="20" height="20" as="geometry" />
        </mxCell>
        <mxCell id="ChCWkwDxSLC9hsaqk-i0-126" value="" style="rounded=0;whiteSpace=wrap;html=1;fillColor=#fff2cc;strokeColor=#d6b656;" vertex="1" parent="ChCWkwDxSLC9hsaqk-i0-124">
          <mxGeometry x="20" width="20" height="20" as="geometry" />
        </mxCell>
        <mxCell id="ChCWkwDxSLC9hsaqk-i0-127" value="" style="rounded=0;whiteSpace=wrap;html=1;fillColor=#fff2cc;strokeColor=#d6b656;" vertex="1" parent="ChCWkwDxSLC9hsaqk-i0-124">
          <mxGeometry y="20" width="20" height="20" as="geometry" />
        </mxCell>
        <mxCell id="ChCWkwDxSLC9hsaqk-i0-128" value="" style="rounded=0;whiteSpace=wrap;html=1;fillColor=#fff2cc;strokeColor=#d6b656;" vertex="1" parent="ChCWkwDxSLC9hsaqk-i0-124">
          <mxGeometry x="20" y="20" width="20" height="20" as="geometry" />
        </mxCell>
        <mxCell id="ChCWkwDxSLC9hsaqk-i0-129" value="" style="group;fillColor=#fff2cc;strokeColor=#d6b656;" vertex="1" connectable="0" parent="ChCWkwDxSLC9hsaqk-i0-113">
          <mxGeometry x="40" y="40" width="40" height="40" as="geometry" />
        </mxCell>
        <mxCell id="ChCWkwDxSLC9hsaqk-i0-130" value="" style="rounded=0;whiteSpace=wrap;html=1;fillColor=#fff2cc;strokeColor=#d6b656;" vertex="1" parent="ChCWkwDxSLC9hsaqk-i0-129">
          <mxGeometry width="20" height="20" as="geometry" />
        </mxCell>
        <mxCell id="ChCWkwDxSLC9hsaqk-i0-131" value="" style="rounded=0;whiteSpace=wrap;html=1;fillColor=#fff2cc;strokeColor=#d6b656;" vertex="1" parent="ChCWkwDxSLC9hsaqk-i0-129">
          <mxGeometry x="20" width="20" height="20" as="geometry" />
        </mxCell>
        <mxCell id="ChCWkwDxSLC9hsaqk-i0-132" value="" style="rounded=0;whiteSpace=wrap;html=1;fillColor=#fff2cc;strokeColor=#d6b656;" vertex="1" parent="ChCWkwDxSLC9hsaqk-i0-129">
          <mxGeometry y="20" width="20" height="20" as="geometry" />
        </mxCell>
        <mxCell id="ChCWkwDxSLC9hsaqk-i0-133" value="" style="rounded=0;whiteSpace=wrap;html=1;fillColor=#fff2cc;strokeColor=#d6b656;" vertex="1" parent="ChCWkwDxSLC9hsaqk-i0-129">
          <mxGeometry x="20" y="20" width="20" height="20" as="geometry" />
        </mxCell>
        <mxCell id="ChCWkwDxSLC9hsaqk-i0-267" value="" style="group;rotation=-180;" vertex="1" connectable="0" parent="1">
          <mxGeometry x="809" y="470" width="120" height="100" as="geometry" />
        </mxCell>
        <mxCell id="ChCWkwDxSLC9hsaqk-i0-251" value="" style="rounded=0;whiteSpace=wrap;html=1;fillColor=#fff2cc;strokeColor=#d6b656;rotation=-90;gradientColor=#ffd966;" vertex="1" parent="ChCWkwDxSLC9hsaqk-i0-267">
          <mxGeometry x="55" y="35" width="10" height="120" as="geometry" />
        </mxCell>
        <mxCell id="ChCWkwDxSLC9hsaqk-i0-242" value="" style="rounded=0;whiteSpace=wrap;html=1;fillColor=#f5f5f5;fontColor=#333333;strokeColor=#666666;rotation=-90;" vertex="1" parent="ChCWkwDxSLC9hsaqk-i0-267">
          <mxGeometry x="55" y="25" width="10" height="120" as="geometry" />
        </mxCell>
        <mxCell id="ChCWkwDxSLC9hsaqk-i0-243" value="" style="rounded=0;whiteSpace=wrap;html=1;fillColor=#f5f5f5;fontColor=#333333;strokeColor=#666666;rotation=-90;" vertex="1" parent="ChCWkwDxSLC9hsaqk-i0-267">
          <mxGeometry x="55" y="5" width="10" height="120" as="geometry" />
        </mxCell>
        <mxCell id="ChCWkwDxSLC9hsaqk-i0-244" value="" style="rounded=0;whiteSpace=wrap;html=1;fillColor=#f5f5f5;fontColor=#333333;strokeColor=#666666;rotation=-90;" vertex="1" parent="ChCWkwDxSLC9hsaqk-i0-267">
          <mxGeometry x="55" y="-15" width="10" height="120" as="geometry" />
        </mxCell>
        <mxCell id="ChCWkwDxSLC9hsaqk-i0-245" value="" style="rounded=0;whiteSpace=wrap;html=1;fillColor=#f5f5f5;fontColor=#333333;strokeColor=#666666;rotation=-90;" vertex="1" parent="ChCWkwDxSLC9hsaqk-i0-267">
          <mxGeometry x="55" y="-55" width="10" height="120" as="geometry" />
        </mxCell>
        <mxCell id="ChCWkwDxSLC9hsaqk-i0-250" value="" style="rounded=0;whiteSpace=wrap;html=1;fillColor=#f5f5f5;fontColor=#333333;strokeColor=#666666;rotation=-90;" vertex="1" parent="ChCWkwDxSLC9hsaqk-i0-267">
          <mxGeometry x="55" y="-35" width="10" height="120" as="geometry" />
        </mxCell>
        <mxCell id="ChCWkwDxSLC9hsaqk-i0-246" style="edgeStyle=orthogonalEdgeStyle;rounded=0;orthogonalLoop=1;jettySize=auto;html=1;exitX=1;exitY=0.5;exitDx=0;exitDy=0;entryX=-0.167;entryY=0.499;entryDx=0;entryDy=0;entryPerimeter=0;strokeWidth=4;endArrow=open;endFill=0;strokeColor=default;startSize=6;endSize=0;" edge="1" parent="ChCWkwDxSLC9hsaqk-i0-267" source="ChCWkwDxSLC9hsaqk-i0-242" target="ChCWkwDxSLC9hsaqk-i0-243">
          <mxGeometry relative="1" as="geometry" />
        </mxCell>
        <mxCell id="ChCWkwDxSLC9hsaqk-i0-247" style="edgeStyle=orthogonalEdgeStyle;rounded=0;orthogonalLoop=1;jettySize=auto;html=1;exitX=1;exitY=0.5;exitDx=0;exitDy=0;entryX=0;entryY=0.5;entryDx=0;entryDy=0;strokeWidth=4;endArrow=open;endFill=0;strokeColor=#6c8ebf;startSize=6;endSize=0;fillColor=#dae8fc;gradientColor=#7ea6e0;" edge="1" parent="ChCWkwDxSLC9hsaqk-i0-267" target="ChCWkwDxSLC9hsaqk-i0-244" source="ChCWkwDxSLC9hsaqk-i0-243">
          <mxGeometry relative="1" as="geometry">
            <mxPoint x="40" y="60" as="sourcePoint" />
            <mxPoint x="40" y="52" as="targetPoint" />
          </mxGeometry>
        </mxCell>
        <mxCell id="ChCWkwDxSLC9hsaqk-i0-248" style="edgeStyle=orthogonalEdgeStyle;rounded=0;orthogonalLoop=1;jettySize=auto;html=1;entryX=0;entryY=0.5;entryDx=0;entryDy=0;strokeWidth=4;endArrow=open;endFill=0;strokeColor=#82b366;startSize=6;endSize=0;fillColor=#d5e8d4;gradientColor=#97d077;exitX=1;exitY=0.5;exitDx=0;exitDy=0;" edge="1" parent="ChCWkwDxSLC9hsaqk-i0-267" source="ChCWkwDxSLC9hsaqk-i0-244" target="ChCWkwDxSLC9hsaqk-i0-250">
          <mxGeometry relative="1" as="geometry">
            <mxPoint x="40" y="40" as="sourcePoint" />
            <mxPoint x="40" y="30" as="targetPoint" />
          </mxGeometry>
        </mxCell>
        <mxCell id="ChCWkwDxSLC9hsaqk-i0-249" style="edgeStyle=orthogonalEdgeStyle;rounded=0;orthogonalLoop=1;jettySize=auto;html=1;entryX=0;entryY=0.5;entryDx=0;entryDy=0;strokeWidth=4;endArrow=open;endFill=0;strokeColor=#996185;startSize=6;endSize=0;fillColor=#e6d0de;gradientColor=#d5739d;exitX=1;exitY=0.5;exitDx=0;exitDy=0;" edge="1" parent="ChCWkwDxSLC9hsaqk-i0-267" source="ChCWkwDxSLC9hsaqk-i0-250" target="ChCWkwDxSLC9hsaqk-i0-245">
          <mxGeometry relative="1" as="geometry">
            <mxPoint x="40" y="20" as="sourcePoint" />
            <mxPoint x="40" y="10" as="targetPoint" />
          </mxGeometry>
        </mxCell>
        <mxCell id="ChCWkwDxSLC9hsaqk-i0-280" value="" style="group;rotation=-180;" vertex="1" connectable="0" parent="1">
          <mxGeometry x="859" y="268" width="80" height="100" as="geometry" />
        </mxCell>
        <mxCell id="ChCWkwDxSLC9hsaqk-i0-269" value="" style="rounded=0;whiteSpace=wrap;html=1;fillColor=#fff2cc;strokeColor=#d6b656;rotation=-90;gradientColor=#ffd966;" vertex="1" parent="ChCWkwDxSLC9hsaqk-i0-280">
          <mxGeometry x="35" y="55" width="10" height="80" as="geometry" />
        </mxCell>
        <mxCell id="ChCWkwDxSLC9hsaqk-i0-270" value="" style="rounded=0;whiteSpace=wrap;html=1;fillColor=#f5f5f5;fontColor=#333333;strokeColor=#666666;rotation=-90;" vertex="1" parent="ChCWkwDxSLC9hsaqk-i0-280">
          <mxGeometry x="35" y="45" width="10" height="80" as="geometry" />
        </mxCell>
        <mxCell id="ChCWkwDxSLC9hsaqk-i0-271" value="" style="rounded=0;whiteSpace=wrap;html=1;fillColor=#f5f5f5;fontColor=#333333;strokeColor=#666666;rotation=-90;" vertex="1" parent="ChCWkwDxSLC9hsaqk-i0-280">
          <mxGeometry x="35" y="25" width="10" height="80" as="geometry" />
        </mxCell>
        <mxCell id="ChCWkwDxSLC9hsaqk-i0-272" value="" style="rounded=0;whiteSpace=wrap;html=1;fillColor=#f5f5f5;fontColor=#333333;strokeColor=#666666;rotation=-90;" vertex="1" parent="ChCWkwDxSLC9hsaqk-i0-280">
          <mxGeometry x="35" y="5" width="10" height="80" as="geometry" />
        </mxCell>
        <mxCell id="ChCWkwDxSLC9hsaqk-i0-273" value="" style="rounded=0;whiteSpace=wrap;html=1;fillColor=#f5f5f5;fontColor=#333333;strokeColor=#666666;rotation=-90;" vertex="1" parent="ChCWkwDxSLC9hsaqk-i0-280">
          <mxGeometry x="35" y="-35" width="10" height="79.5" as="geometry" />
        </mxCell>
        <mxCell id="ChCWkwDxSLC9hsaqk-i0-278" value="" style="rounded=0;whiteSpace=wrap;html=1;fillColor=#f5f5f5;fontColor=#333333;strokeColor=#666666;rotation=-90;" vertex="1" parent="ChCWkwDxSLC9hsaqk-i0-280">
          <mxGeometry x="35" y="-15" width="10" height="80" as="geometry" />
        </mxCell>
        <mxCell id="ChCWkwDxSLC9hsaqk-i0-274" style="edgeStyle=orthogonalEdgeStyle;rounded=0;orthogonalLoop=1;jettySize=auto;html=1;exitX=1;exitY=0.5;exitDx=0;exitDy=0;entryX=-0.167;entryY=0.499;entryDx=0;entryDy=0;entryPerimeter=0;strokeWidth=4;endArrow=open;endFill=0;strokeColor=default;startSize=6;endSize=0;" edge="1" parent="ChCWkwDxSLC9hsaqk-i0-280" source="ChCWkwDxSLC9hsaqk-i0-270" target="ChCWkwDxSLC9hsaqk-i0-271">
          <mxGeometry relative="1" as="geometry" />
        </mxCell>
        <mxCell id="ChCWkwDxSLC9hsaqk-i0-275" style="edgeStyle=orthogonalEdgeStyle;rounded=0;orthogonalLoop=1;jettySize=auto;html=1;exitX=1;exitY=0.5;exitDx=0;exitDy=0;entryX=0;entryY=0.5;entryDx=0;entryDy=0;strokeWidth=4;endArrow=open;endFill=0;strokeColor=#6c8ebf;startSize=6;endSize=0;fillColor=#dae8fc;gradientColor=#7ea6e0;" edge="1" parent="ChCWkwDxSLC9hsaqk-i0-280" source="ChCWkwDxSLC9hsaqk-i0-271" target="ChCWkwDxSLC9hsaqk-i0-272">
          <mxGeometry relative="1" as="geometry">
            <mxPoint y="60" as="sourcePoint" />
            <mxPoint y="52" as="targetPoint" />
          </mxGeometry>
        </mxCell>
        <mxCell id="ChCWkwDxSLC9hsaqk-i0-276" style="edgeStyle=orthogonalEdgeStyle;rounded=0;orthogonalLoop=1;jettySize=auto;html=1;entryX=0;entryY=0.5;entryDx=0;entryDy=0;strokeWidth=4;endArrow=open;endFill=0;strokeColor=#82b366;startSize=6;endSize=0;fillColor=#d5e8d4;gradientColor=#97d077;exitX=1;exitY=0.5;exitDx=0;exitDy=0;" edge="1" parent="ChCWkwDxSLC9hsaqk-i0-280" source="ChCWkwDxSLC9hsaqk-i0-272" target="ChCWkwDxSLC9hsaqk-i0-278">
          <mxGeometry relative="1" as="geometry">
            <mxPoint y="40" as="sourcePoint" />
            <mxPoint y="30" as="targetPoint" />
          </mxGeometry>
        </mxCell>
        <mxCell id="ChCWkwDxSLC9hsaqk-i0-277" style="edgeStyle=orthogonalEdgeStyle;rounded=0;orthogonalLoop=1;jettySize=auto;html=1;entryX=0;entryY=0.5;entryDx=0;entryDy=0;strokeWidth=4;endArrow=open;endFill=0;strokeColor=#996185;startSize=6;endSize=0;fillColor=#e6d0de;gradientColor=#d5739d;exitX=1;exitY=0.5;exitDx=0;exitDy=0;" edge="1" parent="ChCWkwDxSLC9hsaqk-i0-280" source="ChCWkwDxSLC9hsaqk-i0-278" target="ChCWkwDxSLC9hsaqk-i0-273">
          <mxGeometry relative="1" as="geometry">
            <mxPoint y="20" as="sourcePoint" />
            <mxPoint y="10" as="targetPoint" />
          </mxGeometry>
        </mxCell>
        <mxCell id="ChCWkwDxSLC9hsaqk-i0-282" value="" style="group" vertex="1" connectable="0" parent="1">
          <mxGeometry x="484" y="670" width="160" height="90" as="geometry" />
        </mxCell>
        <mxCell id="ChCWkwDxSLC9hsaqk-i0-218" value="" style="rounded=0;whiteSpace=wrap;html=1;fillColor=#f5f5f5;fontColor=#333333;strokeColor=#666666;rotation=-90;" vertex="1" parent="ChCWkwDxSLC9hsaqk-i0-282">
          <mxGeometry x="75" y="5" width="10" height="160" as="geometry" />
        </mxCell>
        <mxCell id="ChCWkwDxSLC9hsaqk-i0-219" value="" style="rounded=0;whiteSpace=wrap;html=1;fillColor=#f5f5f5;fontColor=#333333;strokeColor=#666666;rotation=-90;" vertex="1" parent="ChCWkwDxSLC9hsaqk-i0-282">
          <mxGeometry x="75" y="-15" width="10" height="160" as="geometry" />
        </mxCell>
        <mxCell id="ChCWkwDxSLC9hsaqk-i0-220" value="" style="rounded=0;whiteSpace=wrap;html=1;fillColor=#f5f5f5;fontColor=#333333;strokeColor=#666666;rotation=-90;" vertex="1" parent="ChCWkwDxSLC9hsaqk-i0-282">
          <mxGeometry x="75" y="-35" width="10" height="160" as="geometry" />
        </mxCell>
        <mxCell id="ChCWkwDxSLC9hsaqk-i0-221" value="" style="rounded=0;whiteSpace=wrap;html=1;fillColor=#f5f5f5;fontColor=#333333;strokeColor=#666666;rotation=-90;" vertex="1" parent="ChCWkwDxSLC9hsaqk-i0-282">
          <mxGeometry x="75" y="-75" width="10" height="160" as="geometry" />
        </mxCell>
        <mxCell id="ChCWkwDxSLC9hsaqk-i0-226" value="" style="rounded=0;whiteSpace=wrap;html=1;fillColor=#f5f5f5;fontColor=#333333;strokeColor=#666666;rotation=-90;" vertex="1" parent="ChCWkwDxSLC9hsaqk-i0-282">
          <mxGeometry x="75" y="-55" width="10" height="160" as="geometry" />
        </mxCell>
        <mxCell id="ChCWkwDxSLC9hsaqk-i0-222" style="edgeStyle=orthogonalEdgeStyle;rounded=0;orthogonalLoop=1;jettySize=auto;html=1;exitX=1;exitY=0.5;exitDx=0;exitDy=0;entryX=0;entryY=0.5;entryDx=0;entryDy=0;strokeWidth=4;endArrow=open;endFill=0;strokeColor=default;startSize=6;endSize=0;" edge="1" parent="ChCWkwDxSLC9hsaqk-i0-282" source="ChCWkwDxSLC9hsaqk-i0-218" target="ChCWkwDxSLC9hsaqk-i0-219">
          <mxGeometry relative="1" as="geometry" />
        </mxCell>
        <mxCell id="ChCWkwDxSLC9hsaqk-i0-223" style="edgeStyle=orthogonalEdgeStyle;rounded=0;orthogonalLoop=1;jettySize=auto;html=1;exitX=1;exitY=0.5;exitDx=0;exitDy=0;entryX=0;entryY=0.5;entryDx=0;entryDy=0;strokeWidth=4;endArrow=open;endFill=0;strokeColor=#6c8ebf;startSize=6;endSize=0;fillColor=#dae8fc;gradientColor=#7ea6e0;" edge="1" parent="ChCWkwDxSLC9hsaqk-i0-282" source="ChCWkwDxSLC9hsaqk-i0-219" target="ChCWkwDxSLC9hsaqk-i0-220">
          <mxGeometry relative="1" as="geometry">
            <mxPoint x="80" y="57" as="sourcePoint" />
            <mxPoint x="80" y="49" as="targetPoint" />
          </mxGeometry>
        </mxCell>
        <mxCell id="ChCWkwDxSLC9hsaqk-i0-224" style="edgeStyle=orthogonalEdgeStyle;rounded=0;orthogonalLoop=1;jettySize=auto;html=1;entryX=0;entryY=0.5;entryDx=0;entryDy=0;strokeWidth=4;endArrow=open;endFill=0;strokeColor=#82b366;startSize=6;endSize=0;fillColor=#d5e8d4;gradientColor=#97d077;exitX=1;exitY=0.5;exitDx=0;exitDy=0;" edge="1" parent="ChCWkwDxSLC9hsaqk-i0-282" source="ChCWkwDxSLC9hsaqk-i0-220">
          <mxGeometry relative="1" as="geometry">
            <mxPoint x="80" y="37" as="sourcePoint" />
            <mxPoint x="80" y="27" as="targetPoint" />
          </mxGeometry>
        </mxCell>
        <mxCell id="ChCWkwDxSLC9hsaqk-i0-225" style="edgeStyle=orthogonalEdgeStyle;rounded=0;orthogonalLoop=1;jettySize=auto;html=1;entryX=0;entryY=0.5;entryDx=0;entryDy=0;strokeWidth=4;endArrow=open;endFill=0;strokeColor=#996185;startSize=6;endSize=0;fillColor=#e6d0de;gradientColor=#d5739d;exitX=1;exitY=0.5;exitDx=0;exitDy=0;" edge="1" parent="ChCWkwDxSLC9hsaqk-i0-282" source="ChCWkwDxSLC9hsaqk-i0-226">
          <mxGeometry relative="1" as="geometry">
            <mxPoint x="80" y="17" as="sourcePoint" />
            <mxPoint x="80" y="7" as="targetPoint" />
          </mxGeometry>
        </mxCell>
        <mxCell id="ChCWkwDxSLC9hsaqk-i0-294" style="edgeStyle=orthogonalEdgeStyle;rounded=0;orthogonalLoop=1;jettySize=auto;html=1;entryX=0;entryY=0.5;entryDx=0;entryDy=0;fillColor=#f5f5f5;gradientColor=#b3b3b3;strokeColor=#666666;strokeWidth=4;" edge="1" parent="1" target="ChCWkwDxSLC9hsaqk-i0-218">
          <mxGeometry relative="1" as="geometry">
            <mxPoint x="328" y="780" as="sourcePoint" />
            <Array as="points">
              <mxPoint x="564" y="780" />
            </Array>
          </mxGeometry>
        </mxCell>
        <mxCell id="ChCWkwDxSLC9hsaqk-i0-322" value="&amp;nbsp;" style="text;whiteSpace=wrap;html=1;" vertex="1" parent="1">
          <mxGeometry x="959" y="140" width="40" height="40" as="geometry" />
        </mxCell>
        <mxCell id="ChCWkwDxSLC9hsaqk-i0-323" style="edgeStyle=orthogonalEdgeStyle;rounded=0;orthogonalLoop=1;jettySize=auto;html=1;exitX=0;exitY=1;exitDx=0;exitDy=0;entryX=0.529;entryY=-0.127;entryDx=0;entryDy=0;entryPerimeter=0;fillColor=#fff2cc;gradientColor=#ffd966;strokeColor=#d6b656;strokeWidth=4;" edge="1" parent="1" source="ChCWkwDxSLC9hsaqk-i0-26" target="ChCWkwDxSLC9hsaqk-i0-34">
          <mxGeometry relative="1" as="geometry" />
        </mxCell>
        <mxCell id="ChCWkwDxSLC9hsaqk-i0-335" style="edgeStyle=orthogonalEdgeStyle;rounded=0;orthogonalLoop=1;jettySize=auto;html=1;entryX=0.5;entryY=0;entryDx=0;entryDy=0;strokeWidth=4;fillColor=#f5f5f5;gradientColor=#b3b3b3;strokeColor=#666666;exitX=0.989;exitY=0.157;exitDx=0;exitDy=0;exitPerimeter=0;" edge="1" parent="1" source="ChCWkwDxSLC9hsaqk-i0-27" target="ChCWkwDxSLC9hsaqk-i0-251">
          <mxGeometry relative="1" as="geometry">
            <mxPoint x="278" y="570" as="sourcePoint" />
            <Array as="points">
              <mxPoint x="278" y="565" />
            </Array>
          </mxGeometry>
        </mxCell>
        <mxCell id="ChCWkwDxSLC9hsaqk-i0-336" style="edgeStyle=orthogonalEdgeStyle;rounded=0;orthogonalLoop=1;jettySize=auto;html=1;exitX=1;exitY=0.75;exitDx=0;exitDy=0;entryX=0;entryY=0.5;entryDx=0;entryDy=0;strokeWidth=4;fillColor=#f5f5f5;gradientColor=#b3b3b3;strokeColor=#666666;" edge="1" parent="1" source="ChCWkwDxSLC9hsaqk-i0-328" target="ChCWkwDxSLC9hsaqk-i0-251">
          <mxGeometry relative="1" as="geometry">
            <Array as="points" />
          </mxGeometry>
        </mxCell>
        <mxCell id="ChCWkwDxSLC9hsaqk-i0-338" style="edgeStyle=orthogonalEdgeStyle;rounded=0;orthogonalLoop=1;jettySize=auto;html=1;entryX=0;entryY=0.5;entryDx=0;entryDy=0;fillColor=#f5f5f5;gradientColor=#b3b3b3;strokeColor=#666666;strokeWidth=4;" edge="1" parent="1" target="ChCWkwDxSLC9hsaqk-i0-269">
          <mxGeometry relative="1" as="geometry">
            <mxPoint x="899" y="470" as="sourcePoint" />
            <Array as="points">
              <mxPoint x="899" y="445" />
              <mxPoint x="899" y="445" />
            </Array>
          </mxGeometry>
        </mxCell>
        <mxCell id="ChCWkwDxSLC9hsaqk-i0-339" style="edgeStyle=orthogonalEdgeStyle;rounded=0;orthogonalLoop=1;jettySize=auto;html=1;entryX=0.5;entryY=0;entryDx=0;entryDy=0;strokeWidth=4;fillColor=#f5f5f5;gradientColor=#b3b3b3;strokeColor=#666666;" edge="1" parent="1" target="ChCWkwDxSLC9hsaqk-i0-269">
          <mxGeometry relative="1" as="geometry">
            <mxPoint x="228" y="390" as="sourcePoint" />
            <Array as="points">
              <mxPoint x="228" y="363" />
            </Array>
          </mxGeometry>
        </mxCell>
        <mxCell id="ChCWkwDxSLC9hsaqk-i0-341" style="edgeStyle=orthogonalEdgeStyle;rounded=0;orthogonalLoop=1;jettySize=auto;html=1;exitX=0.834;exitY=0.905;exitDx=0;exitDy=0;entryX=0;entryY=0.5;entryDx=0;entryDy=0;strokeWidth=4;fillColor=#f5f5f5;gradientColor=#b3b3b3;strokeColor=#666666;exitPerimeter=0;" edge="1" parent="1" source="ChCWkwDxSLC9hsaqk-i0-273" target="ChCWkwDxSLC9hsaqk-i0-309">
          <mxGeometry relative="1" as="geometry">
            <Array as="points">
              <mxPoint x="931" y="268" />
              <mxPoint x="934" y="268" />
            </Array>
          </mxGeometry>
        </mxCell>
        <mxCell id="ChCWkwDxSLC9hsaqk-i0-344" value="" style="group" vertex="1" connectable="0" parent="1">
          <mxGeometry x="914" y="69.87" width="40" height="100.25" as="geometry" />
        </mxCell>
        <mxCell id="ChCWkwDxSLC9hsaqk-i0-309" value="" style="rounded=0;whiteSpace=wrap;html=1;fillColor=#fff2cc;strokeColor=#d6b656;rotation=-90;gradientColor=#ffd966;" vertex="1" parent="ChCWkwDxSLC9hsaqk-i0-344">
          <mxGeometry x="14.906832298136646" y="75.25" width="9.937888198757763" height="40" as="geometry" />
        </mxCell>
        <mxCell id="ChCWkwDxSLC9hsaqk-i0-310" value="" style="rounded=0;whiteSpace=wrap;html=1;fillColor=#f5f5f5;fontColor=#333333;strokeColor=#666666;rotation=-90;" vertex="1" parent="ChCWkwDxSLC9hsaqk-i0-344">
          <mxGeometry x="14.906832298136646" y="65.25" width="9.937888198757763" height="40" as="geometry" />
        </mxCell>
        <mxCell id="ChCWkwDxSLC9hsaqk-i0-311" value="" style="rounded=0;whiteSpace=wrap;html=1;fillColor=#f5f5f5;fontColor=#333333;strokeColor=#666666;rotation=-90;" vertex="1" parent="ChCWkwDxSLC9hsaqk-i0-344">
          <mxGeometry x="14.906832298136646" y="45.25" width="9.937888198757763" height="40" as="geometry" />
        </mxCell>
        <mxCell id="ChCWkwDxSLC9hsaqk-i0-312" value="" style="rounded=0;whiteSpace=wrap;html=1;fillColor=#f5f5f5;fontColor=#333333;strokeColor=#666666;rotation=-90;" vertex="1" parent="ChCWkwDxSLC9hsaqk-i0-344">
          <mxGeometry x="14.906832298136646" y="25.25" width="9.937888198757763" height="40" as="geometry" />
        </mxCell>
        <mxCell id="ChCWkwDxSLC9hsaqk-i0-313" value="" style="rounded=0;whiteSpace=wrap;html=1;fillColor=#f5f5f5;fontColor=#333333;strokeColor=#666666;rotation=-90;" vertex="1" parent="ChCWkwDxSLC9hsaqk-i0-344">
          <mxGeometry x="15.15527950310559" y="-15.000000000000007" width="9.937888198757763" height="40" as="geometry" />
        </mxCell>
        <mxCell id="ChCWkwDxSLC9hsaqk-i0-318" value="" style="rounded=0;whiteSpace=wrap;html=1;fillColor=#f5f5f5;fontColor=#333333;strokeColor=#666666;rotation=-90;" vertex="1" parent="ChCWkwDxSLC9hsaqk-i0-344">
          <mxGeometry x="14.906832298136646" y="5.25" width="9.937888198757763" height="40" as="geometry" />
        </mxCell>
        <mxCell id="ChCWkwDxSLC9hsaqk-i0-314" style="edgeStyle=orthogonalEdgeStyle;rounded=0;orthogonalLoop=1;jettySize=auto;html=1;exitX=1;exitY=0.5;exitDx=0;exitDy=0;entryX=-0.167;entryY=0.499;entryDx=0;entryDy=0;entryPerimeter=0;strokeWidth=4;endArrow=open;endFill=0;strokeColor=default;startSize=6;endSize=0;" edge="1" parent="ChCWkwDxSLC9hsaqk-i0-344" source="ChCWkwDxSLC9hsaqk-i0-310" target="ChCWkwDxSLC9hsaqk-i0-311">
          <mxGeometry relative="1" as="geometry" />
        </mxCell>
        <mxCell id="ChCWkwDxSLC9hsaqk-i0-315" style="edgeStyle=orthogonalEdgeStyle;rounded=0;orthogonalLoop=1;jettySize=auto;html=1;exitX=1;exitY=0.5;exitDx=0;exitDy=0;entryX=0;entryY=0.5;entryDx=0;entryDy=0;strokeWidth=4;endArrow=open;endFill=0;strokeColor=#6c8ebf;startSize=6;endSize=0;fillColor=#dae8fc;gradientColor=#7ea6e0;" edge="1" parent="ChCWkwDxSLC9hsaqk-i0-344" source="ChCWkwDxSLC9hsaqk-i0-311" target="ChCWkwDxSLC9hsaqk-i0-312">
          <mxGeometry relative="1" as="geometry">
            <mxPoint y="60.25" as="sourcePoint" />
            <mxPoint y="52.25" as="targetPoint" />
          </mxGeometry>
        </mxCell>
        <mxCell id="ChCWkwDxSLC9hsaqk-i0-316" style="edgeStyle=orthogonalEdgeStyle;rounded=0;orthogonalLoop=1;jettySize=auto;html=1;entryX=0;entryY=0.5;entryDx=0;entryDy=0;strokeWidth=4;endArrow=open;endFill=0;strokeColor=#82b366;startSize=6;endSize=0;fillColor=#d5e8d4;gradientColor=#97d077;exitX=1;exitY=0.5;exitDx=0;exitDy=0;" edge="1" parent="ChCWkwDxSLC9hsaqk-i0-344" source="ChCWkwDxSLC9hsaqk-i0-312" target="ChCWkwDxSLC9hsaqk-i0-318">
          <mxGeometry relative="1" as="geometry">
            <mxPoint y="40.25" as="sourcePoint" />
            <mxPoint y="30.25" as="targetPoint" />
          </mxGeometry>
        </mxCell>
        <mxCell id="ChCWkwDxSLC9hsaqk-i0-317" style="edgeStyle=orthogonalEdgeStyle;rounded=0;orthogonalLoop=1;jettySize=auto;html=1;entryX=0;entryY=0.5;entryDx=0;entryDy=0;strokeWidth=4;endArrow=open;endFill=0;strokeColor=#996185;startSize=6;endSize=0;fillColor=#e6d0de;gradientColor=#d5739d;exitX=1;exitY=0.5;exitDx=0;exitDy=0;" edge="1" parent="ChCWkwDxSLC9hsaqk-i0-344" source="ChCWkwDxSLC9hsaqk-i0-318" target="ChCWkwDxSLC9hsaqk-i0-313">
          <mxGeometry relative="1" as="geometry">
            <mxPoint y="20.25" as="sourcePoint" />
            <mxPoint y="10.25" as="targetPoint" />
          </mxGeometry>
        </mxCell>
        <mxCell id="ChCWkwDxSLC9hsaqk-i0-358" value="" style="rounded=0;whiteSpace=wrap;html=1;fillColor=#f5f5f5;gradientColor=#b3b3b3;strokeColor=#666666;" vertex="1" parent="1">
          <mxGeometry x="983" y="40" width="10" height="160" as="geometry" />
        </mxCell>
        <mxCell id="ChCWkwDxSLC9hsaqk-i0-359" style="edgeStyle=orthogonalEdgeStyle;rounded=0;orthogonalLoop=1;jettySize=auto;html=1;exitX=1;exitY=0.5;exitDx=0;exitDy=0;entryX=0;entryY=0.5;entryDx=0;entryDy=0;strokeWidth=4;fillColor=#60a917;strokeColor=#2D7600;" edge="1" parent="1" source="ChCWkwDxSLC9hsaqk-i0-313" target="ChCWkwDxSLC9hsaqk-i0-358">
          <mxGeometry relative="1" as="geometry">
            <Array as="points">
              <mxPoint x="934" y="50" />
              <mxPoint x="960" y="50" />
              <mxPoint x="960" y="120" />
            </Array>
          </mxGeometry>
        </mxCell>
        <mxCell id="ChCWkwDxSLC9hsaqk-i0-360" value="" style="rounded=0;whiteSpace=wrap;html=1;fillColor=#f5f5f5;gradientColor=#b3b3b3;strokeColor=#666666;" vertex="1" parent="1">
          <mxGeometry x="108" y="40" width="4" height="160" as="geometry" />
        </mxCell>
        <mxCell id="ChCWkwDxSLC9hsaqk-i0-361" style="edgeStyle=orthogonalEdgeStyle;rounded=0;orthogonalLoop=1;jettySize=auto;html=1;exitX=1;exitY=0.5;exitDx=0;exitDy=0;entryX=-0.042;entryY=0.503;entryDx=0;entryDy=0;entryPerimeter=0;strokeWidth=4;fillColor=#fff2cc;strokeColor=#d6b656;" edge="1" parent="1" source="ChCWkwDxSLC9hsaqk-i0-360" target="ChCWkwDxSLC9hsaqk-i0-3">
          <mxGeometry relative="1" as="geometry" />
        </mxCell>
        <mxCell id="ChCWkwDxSLC9hsaqk-i0-362" value="3" style="text;html=1;align=center;verticalAlign=middle;whiteSpace=wrap;rounded=0;fontSize=20;" vertex="1" parent="1">
          <mxGeometry x="80" y="200" width="60" height="30" as="geometry" />
        </mxCell>
        <mxCell id="ChCWkwDxSLC9hsaqk-i0-363" value="128" style="text;html=1;align=center;verticalAlign=middle;whiteSpace=wrap;rounded=0;fontSize=20;" vertex="1" parent="1">
          <mxGeometry x="168" y="195" width="60" height="30" as="geometry" />
        </mxCell>
        <mxCell id="ChCWkwDxSLC9hsaqk-i0-369" value="256" style="text;html=1;align=center;verticalAlign=middle;whiteSpace=wrap;rounded=0;fontFamily=Helvetica;fontSize=20;fontColor=default;" vertex="1" parent="1">
          <mxGeometry x="909" y="368" width="60" height="30" as="geometry" />
        </mxCell>
        <mxCell id="ChCWkwDxSLC9hsaqk-i0-370" value="&lt;div&gt;512&lt;/div&gt;" style="text;html=1;align=center;verticalAlign=middle;whiteSpace=wrap;rounded=0;fontFamily=Helvetica;fontSize=20;fontColor=default;" vertex="1" parent="1">
          <mxGeometry x="278" y="600" width="60" height="30" as="geometry" />
        </mxCell>
        <mxCell id="ChCWkwDxSLC9hsaqk-i0-371" value="1024" style="text;html=1;align=center;verticalAlign=middle;whiteSpace=wrap;rounded=0;fontFamily=Helvetica;fontSize=20;fontColor=default;" vertex="1" parent="1">
          <mxGeometry x="326" y="810" width="60" height="30" as="geometry" />
        </mxCell>
        <mxCell id="ChCWkwDxSLC9hsaqk-i0-372" value="&lt;div&gt;512&lt;/div&gt;" style="text;html=1;align=center;verticalAlign=middle;whiteSpace=wrap;rounded=0;fontFamily=Helvetica;fontSize=20;fontColor=default;" vertex="1" parent="1">
          <mxGeometry x="894" y="570" width="60" height="30" as="geometry" />
        </mxCell>
        <mxCell id="ChCWkwDxSLC9hsaqk-i0-373" value="256" style="text;html=1;align=center;verticalAlign=middle;whiteSpace=wrap;rounded=0;fontFamily=Helvetica;fontSize=20;fontColor=default;" vertex="1" parent="1">
          <mxGeometry x="228" y="400" width="60" height="30" as="geometry" />
        </mxCell>
        <mxCell id="ChCWkwDxSLC9hsaqk-i0-375" value="34" style="text;html=1;align=center;verticalAlign=middle;whiteSpace=wrap;rounded=0;fontSize=20;" vertex="1" parent="1">
          <mxGeometry x="972" y="205" width="27" height="20" as="geometry" />
        </mxCell>
        <mxCell id="ChCWkwDxSLC9hsaqk-i0-410" value="1024" style="text;html=1;align=center;verticalAlign=middle;whiteSpace=wrap;rounded=0;fontFamily=Helvetica;fontSize=20;fontColor=default;" vertex="1" parent="1">
          <mxGeometry x="460" y="780" width="60" height="30" as="geometry" />
        </mxCell>
        <mxCell id="ChCWkwDxSLC9hsaqk-i0-411" value="1024" style="text;html=1;align=center;verticalAlign=middle;whiteSpace=wrap;rounded=0;fontFamily=Helvetica;fontSize=20;fontColor=default;" vertex="1" parent="1">
          <mxGeometry x="859" y="760" width="60" height="30" as="geometry" />
        </mxCell>
        <mxCell id="ChCWkwDxSLC9hsaqk-i0-413" style="edgeStyle=orthogonalEdgeStyle;rounded=0;orthogonalLoop=1;jettySize=auto;html=1;exitX=1;exitY=0.5;exitDx=0;exitDy=0;entryX=0;entryY=0.5;entryDx=0;entryDy=0;fontFamily=Helvetica;fontSize=20;fontColor=default;fillColor=#f5f5f5;strokeColor=#666666;strokeWidth=4;" edge="1" parent="1" source="ChCWkwDxSLC9hsaqk-i0-221" target="ChCWkwDxSLC9hsaqk-i0-325">
          <mxGeometry relative="1" as="geometry" />
        </mxCell>
        <mxCell id="ChCWkwDxSLC9hsaqk-i0-284" value="" style="group" vertex="1" connectable="0" parent="1">
          <mxGeometry x="749" y="670" width="160" height="90" as="geometry" />
        </mxCell>
        <mxCell id="ChCWkwDxSLC9hsaqk-i0-285" value="" style="rounded=0;whiteSpace=wrap;html=1;fillColor=#f5f5f5;fontColor=#333333;strokeColor=#666666;rotation=-90;" vertex="1" parent="ChCWkwDxSLC9hsaqk-i0-284">
          <mxGeometry x="75" y="5" width="10" height="160" as="geometry" />
        </mxCell>
        <mxCell id="ChCWkwDxSLC9hsaqk-i0-286" value="" style="rounded=0;whiteSpace=wrap;html=1;fillColor=#f5f5f5;fontColor=#333333;strokeColor=#666666;rotation=-90;" vertex="1" parent="ChCWkwDxSLC9hsaqk-i0-284">
          <mxGeometry x="75" y="-15" width="10" height="160" as="geometry" />
        </mxCell>
        <mxCell id="ChCWkwDxSLC9hsaqk-i0-287" value="" style="rounded=0;whiteSpace=wrap;html=1;fillColor=#f5f5f5;fontColor=#333333;strokeColor=#666666;rotation=-90;" vertex="1" parent="ChCWkwDxSLC9hsaqk-i0-284">
          <mxGeometry x="75" y="-35" width="10" height="160" as="geometry" />
        </mxCell>
        <mxCell id="ChCWkwDxSLC9hsaqk-i0-288" value="" style="rounded=0;whiteSpace=wrap;html=1;fillColor=#f5f5f5;fontColor=#333333;strokeColor=#666666;rotation=-90;" vertex="1" parent="ChCWkwDxSLC9hsaqk-i0-284">
          <mxGeometry x="75" y="-75" width="10" height="160" as="geometry" />
        </mxCell>
        <mxCell id="ChCWkwDxSLC9hsaqk-i0-289" style="edgeStyle=orthogonalEdgeStyle;rounded=0;orthogonalLoop=1;jettySize=auto;html=1;exitX=1;exitY=0.5;exitDx=0;exitDy=0;entryX=0;entryY=0.5;entryDx=0;entryDy=0;strokeWidth=3;endArrow=open;endFill=0;strokeColor=default;startSize=6;endSize=0;" edge="1" parent="ChCWkwDxSLC9hsaqk-i0-284" source="ChCWkwDxSLC9hsaqk-i0-285" target="ChCWkwDxSLC9hsaqk-i0-286">
          <mxGeometry relative="1" as="geometry" />
        </mxCell>
        <mxCell id="ChCWkwDxSLC9hsaqk-i0-290" style="edgeStyle=orthogonalEdgeStyle;rounded=0;orthogonalLoop=1;jettySize=auto;html=1;exitX=1;exitY=0.5;exitDx=0;exitDy=0;entryX=0;entryY=0.5;entryDx=0;entryDy=0;strokeWidth=3;endArrow=open;endFill=0;strokeColor=#6c8ebf;startSize=6;endSize=0;fillColor=#dae8fc;gradientColor=#7ea6e0;" edge="1" parent="ChCWkwDxSLC9hsaqk-i0-284" source="ChCWkwDxSLC9hsaqk-i0-286" target="ChCWkwDxSLC9hsaqk-i0-287">
          <mxGeometry relative="1" as="geometry">
            <mxPoint x="80" y="57" as="sourcePoint" />
            <mxPoint x="80" y="49" as="targetPoint" />
          </mxGeometry>
        </mxCell>
        <mxCell id="ChCWkwDxSLC9hsaqk-i0-291" style="edgeStyle=orthogonalEdgeStyle;rounded=0;orthogonalLoop=1;jettySize=auto;html=1;entryX=0;entryY=0.5;entryDx=0;entryDy=0;strokeWidth=3;endArrow=open;endFill=0;strokeColor=#82b366;startSize=6;endSize=0;fillColor=#d5e8d4;gradientColor=#97d077;exitX=1;exitY=0.5;exitDx=0;exitDy=0;" edge="1" parent="ChCWkwDxSLC9hsaqk-i0-284" source="ChCWkwDxSLC9hsaqk-i0-287">
          <mxGeometry relative="1" as="geometry">
            <mxPoint x="80" y="37" as="sourcePoint" />
            <mxPoint x="80" y="27" as="targetPoint" />
          </mxGeometry>
        </mxCell>
        <mxCell id="ChCWkwDxSLC9hsaqk-i0-292" style="edgeStyle=orthogonalEdgeStyle;rounded=0;orthogonalLoop=1;jettySize=auto;html=1;entryX=0;entryY=0.5;entryDx=0;entryDy=0;strokeWidth=3;endArrow=open;endFill=0;strokeColor=#996185;startSize=6;endSize=0;fillColor=#e6d0de;gradientColor=#d5739d;exitX=1;exitY=0.5;exitDx=0;exitDy=0;" edge="1" parent="ChCWkwDxSLC9hsaqk-i0-284" source="ChCWkwDxSLC9hsaqk-i0-293">
          <mxGeometry relative="1" as="geometry">
            <mxPoint x="80" y="17" as="sourcePoint" />
            <mxPoint x="80" y="7" as="targetPoint" />
          </mxGeometry>
        </mxCell>
        <mxCell id="ChCWkwDxSLC9hsaqk-i0-293" value="" style="rounded=0;whiteSpace=wrap;html=1;fillColor=#f5f5f5;fontColor=#333333;strokeColor=#666666;rotation=-90;" vertex="1" parent="ChCWkwDxSLC9hsaqk-i0-284">
          <mxGeometry x="75" y="-55" width="10" height="160" as="geometry" />
        </mxCell>
        <mxCell id="ChCWkwDxSLC9hsaqk-i0-324" value="" style="group" vertex="1" connectable="0" parent="1">
          <mxGeometry x="749" y="670" width="160" height="90" as="geometry" />
        </mxCell>
        <mxCell id="ChCWkwDxSLC9hsaqk-i0-325" value="" style="rounded=0;whiteSpace=wrap;html=1;fillColor=#f5f5f5;fontColor=#333333;strokeColor=#666666;rotation=-90;" vertex="1" parent="ChCWkwDxSLC9hsaqk-i0-324">
          <mxGeometry x="75" y="5" width="10" height="160" as="geometry" />
        </mxCell>
        <mxCell id="ChCWkwDxSLC9hsaqk-i0-326" value="" style="rounded=0;whiteSpace=wrap;html=1;fillColor=#f5f5f5;fontColor=#333333;strokeColor=#666666;rotation=-90;" vertex="1" parent="ChCWkwDxSLC9hsaqk-i0-324">
          <mxGeometry x="75" y="-15" width="10" height="160" as="geometry" />
        </mxCell>
        <mxCell id="ChCWkwDxSLC9hsaqk-i0-327" value="" style="rounded=0;whiteSpace=wrap;html=1;fillColor=#f5f5f5;fontColor=#333333;strokeColor=#666666;rotation=-90;" vertex="1" parent="ChCWkwDxSLC9hsaqk-i0-324">
          <mxGeometry x="75" y="-35" width="10" height="160" as="geometry" />
        </mxCell>
        <mxCell id="ChCWkwDxSLC9hsaqk-i0-328" value="" style="rounded=0;whiteSpace=wrap;html=1;fillColor=#f5f5f5;fontColor=#333333;strokeColor=#666666;rotation=-90;" vertex="1" parent="ChCWkwDxSLC9hsaqk-i0-324">
          <mxGeometry x="75" y="-75" width="10" height="160" as="geometry" />
        </mxCell>
        <mxCell id="ChCWkwDxSLC9hsaqk-i0-333" value="" style="rounded=0;whiteSpace=wrap;html=1;fillColor=#f5f5f5;fontColor=#333333;strokeColor=#666666;rotation=-90;" vertex="1" parent="ChCWkwDxSLC9hsaqk-i0-324">
          <mxGeometry x="75" y="-55" width="10" height="160" as="geometry" />
        </mxCell>
        <mxCell id="ChCWkwDxSLC9hsaqk-i0-329" style="edgeStyle=orthogonalEdgeStyle;rounded=0;orthogonalLoop=1;jettySize=auto;html=1;exitX=1;exitY=0.5;exitDx=0;exitDy=0;entryX=0;entryY=0.5;entryDx=0;entryDy=0;strokeWidth=4;endArrow=open;endFill=0;strokeColor=default;startSize=6;endSize=0;" edge="1" parent="ChCWkwDxSLC9hsaqk-i0-324" source="ChCWkwDxSLC9hsaqk-i0-325" target="ChCWkwDxSLC9hsaqk-i0-326">
          <mxGeometry relative="1" as="geometry" />
        </mxCell>
        <mxCell id="ChCWkwDxSLC9hsaqk-i0-330" style="edgeStyle=orthogonalEdgeStyle;rounded=0;orthogonalLoop=1;jettySize=auto;html=1;exitX=1;exitY=0.5;exitDx=0;exitDy=0;entryX=0;entryY=0.5;entryDx=0;entryDy=0;strokeWidth=4;endArrow=open;endFill=0;strokeColor=#6c8ebf;startSize=6;endSize=0;fillColor=#dae8fc;gradientColor=#7ea6e0;" edge="1" parent="ChCWkwDxSLC9hsaqk-i0-324" source="ChCWkwDxSLC9hsaqk-i0-326" target="ChCWkwDxSLC9hsaqk-i0-327">
          <mxGeometry relative="1" as="geometry">
            <mxPoint x="80" y="57" as="sourcePoint" />
            <mxPoint x="80" y="49" as="targetPoint" />
          </mxGeometry>
        </mxCell>
        <mxCell id="ChCWkwDxSLC9hsaqk-i0-331" style="edgeStyle=orthogonalEdgeStyle;rounded=0;orthogonalLoop=1;jettySize=auto;html=1;entryX=0;entryY=0.5;entryDx=0;entryDy=0;strokeWidth=4;endArrow=open;endFill=0;strokeColor=#82b366;startSize=6;endSize=0;fillColor=#d5e8d4;gradientColor=#97d077;exitX=1;exitY=0.5;exitDx=0;exitDy=0;" edge="1" parent="ChCWkwDxSLC9hsaqk-i0-324" source="ChCWkwDxSLC9hsaqk-i0-327">
          <mxGeometry relative="1" as="geometry">
            <mxPoint x="80" y="37" as="sourcePoint" />
            <mxPoint x="80" y="27" as="targetPoint" />
          </mxGeometry>
        </mxCell>
        <mxCell id="ChCWkwDxSLC9hsaqk-i0-332" style="edgeStyle=orthogonalEdgeStyle;rounded=0;orthogonalLoop=1;jettySize=auto;html=1;entryX=0;entryY=0.5;entryDx=0;entryDy=0;strokeWidth=4;endArrow=open;endFill=0;strokeColor=#996185;startSize=6;endSize=0;fillColor=#e6d0de;gradientColor=#d5739d;exitX=1;exitY=0.5;exitDx=0;exitDy=0;" edge="1" parent="ChCWkwDxSLC9hsaqk-i0-324" source="ChCWkwDxSLC9hsaqk-i0-333">
          <mxGeometry relative="1" as="geometry">
            <mxPoint x="80" y="17" as="sourcePoint" />
            <mxPoint x="80" y="7" as="targetPoint" />
          </mxGeometry>
        </mxCell>
        <mxCell id="ChCWkwDxSLC9hsaqk-i0-374" value="128" style="text;html=1;align=center;verticalAlign=middle;whiteSpace=wrap;rounded=0;fontSize=20;" vertex="1" parent="1">
          <mxGeometry x="930" y="170.00000000000003" width="60" height="30" as="geometry" />
        </mxCell>
        <mxCell id="ChCWkwDxSLC9hsaqk-i0-404" value="" style="group" vertex="1" connectable="0" parent="1">
          <mxGeometry x="552" y="214.65242970056383" width="220.9975521821632" height="94.01327529740448" as="geometry" />
        </mxCell>
        <mxCell id="ChCWkwDxSLC9hsaqk-i0-397" value="" style="group" vertex="1" connectable="0" parent="ChCWkwDxSLC9hsaqk-i0-404">
          <mxGeometry width="201.29032258064512" height="23.502304147465427" as="geometry" />
        </mxCell>
        <mxCell id="ChCWkwDxSLC9hsaqk-i0-384" value="" style="shape=flexArrow;endArrow=classic;html=1;rounded=0;fontFamily=Helvetica;fontSize=20;fontColor=default;exitX=0.25;exitY=0.492;exitDx=0;exitDy=0;exitPerimeter=0;fillColor=#fff2cc;strokeColor=#d6b656;" edge="1" parent="ChCWkwDxSLC9hsaqk-i0-397" target="ChCWkwDxSLC9hsaqk-i0-385">
          <mxGeometry width="50" height="50" relative="1" as="geometry">
            <mxPoint y="11.691612903225785" as="sourcePoint" />
            <mxPoint x="88.8045540796964" y="11.751152073732714" as="targetPoint" />
          </mxGeometry>
        </mxCell>
        <mxCell id="ChCWkwDxSLC9hsaqk-i0-385" value="&lt;font style=&quot;font-size: 15px;&quot;&gt;Transformer Head&lt;/font&gt;" style="text;html=1;align=left;verticalAlign=middle;whiteSpace=wrap;rounded=0;fontFamily=Helvetica;fontSize=20;fontColor=default;" vertex="1" parent="ChCWkwDxSLC9hsaqk-i0-397">
          <mxGeometry x="66.60341555977229" width="134.68690702087284" height="23.502304147465438" as="geometry" />
        </mxCell>
        <mxCell id="ChCWkwDxSLC9hsaqk-i0-399" value="" style="shape=flexArrow;endArrow=classic;html=1;rounded=0;fontFamily=Helvetica;fontSize=20;fontColor=default;exitX=0.25;exitY=0.492;exitDx=0;exitDy=0;exitPerimeter=0;fillColor=#666666;strokeColor=#36393d;" edge="1" parent="ChCWkwDxSLC9hsaqk-i0-404" target="ChCWkwDxSLC9hsaqk-i0-400">
          <mxGeometry width="50" height="50" relative="1" as="geometry">
            <mxPoint y="44.75388433760205" as="sourcePoint" />
            <mxPoint x="88.80455407969635" y="44.813423508108976" as="targetPoint" />
          </mxGeometry>
        </mxCell>
        <mxCell id="ChCWkwDxSLC9hsaqk-i0-400" value="&lt;font style=&quot;font-size: 15px;&quot;&gt;Skip Connection&lt;br&gt;&lt;/font&gt;" style="text;html=1;align=left;verticalAlign=middle;whiteSpace=wrap;rounded=0;fontFamily=Helvetica;fontSize=20;fontColor=default;" vertex="1" parent="ChCWkwDxSLC9hsaqk-i0-404">
          <mxGeometry x="66.6034155597722" y="33.06227143437625" width="134.68690702087284" height="23.502304147465438" as="geometry" />
        </mxCell>
        <mxCell id="ChCWkwDxSLC9hsaqk-i0-401" value="" style="shape=flexArrow;endArrow=classic;html=1;rounded=0;fontFamily=Helvetica;fontSize=20;fontColor=default;exitX=0.25;exitY=0.492;exitDx=0;exitDy=0;exitPerimeter=0;fillColor=#008a00;strokeColor=#005700;" edge="1" parent="ChCWkwDxSLC9hsaqk-i0-404" target="ChCWkwDxSLC9hsaqk-i0-402">
          <mxGeometry width="50" height="50" relative="1" as="geometry">
            <mxPoint y="82.20258405316483" as="sourcePoint" />
            <mxPoint x="88.80455407969635" y="82.26212322367175" as="targetPoint" />
          </mxGeometry>
        </mxCell>
        <mxCell id="ChCWkwDxSLC9hsaqk-i0-402" value="&lt;font style=&quot;font-size: 15px;&quot;&gt;Upsample + Conv2D&lt;font style=&quot;font-size: 15px;&quot;&gt;&lt;br&gt;&lt;/font&gt;&lt;/font&gt;" style="text;html=1;align=left;verticalAlign=middle;whiteSpace=wrap;rounded=0;fontFamily=Helvetica;fontSize=20;fontColor=default;" vertex="1" parent="ChCWkwDxSLC9hsaqk-i0-404">
          <mxGeometry x="66.6034155597722" y="70.51097114993905" width="134.68690702087284" height="23.502304147465438" as="geometry" />
        </mxCell>
        <mxCell id="ChCWkwDxSLC9hsaqk-i0-406" value="" style="group" vertex="1" connectable="0" parent="1">
          <mxGeometry x="324" y="200.7100928400092" width="201.29032258064507" height="117.5115207373272" as="geometry" />
        </mxCell>
        <mxCell id="ChCWkwDxSLC9hsaqk-i0-386" value="" style="shape=flexArrow;endArrow=classic;html=1;rounded=0;fontFamily=Helvetica;fontSize=20;fontColor=default;exitX=0.25;exitY=0.492;exitDx=0;exitDy=0;exitPerimeter=0;fillColor=#000000;strokeColor=#56517e;" edge="1" parent="ChCWkwDxSLC9hsaqk-i0-406">
          <mxGeometry width="50" height="50" relative="1" as="geometry">
            <mxPoint x="-2" y="11.691612903225781" as="sourcePoint" />
            <mxPoint x="64.60341555977237" y="11.721218015632473" as="targetPoint" />
          </mxGeometry>
        </mxCell>
        <mxCell id="ChCWkwDxSLC9hsaqk-i0-387" value="&lt;font style=&quot;font-size: 15px;&quot;&gt;Conv2d 3x3&lt;/font&gt;" style="text;html=1;align=left;verticalAlign=middle;whiteSpace=wrap;rounded=0;fontFamily=Helvetica;fontSize=20;fontColor=default;" vertex="1" parent="ChCWkwDxSLC9hsaqk-i0-406">
          <mxGeometry x="66.60341555977226" width="134.68690702087284" height="23.502304147465438" as="geometry" />
        </mxCell>
        <mxCell id="ChCWkwDxSLC9hsaqk-i0-388" value="" style="shape=flexArrow;endArrow=classic;html=1;rounded=0;fontFamily=Helvetica;fontSize=20;fontColor=default;exitX=0.25;exitY=0.492;exitDx=0;exitDy=0;exitPerimeter=0;fillColor=#dae8fc;strokeColor=#6c8ebf;" edge="1" parent="ChCWkwDxSLC9hsaqk-i0-406">
          <mxGeometry width="50" height="50" relative="1" as="geometry">
            <mxPoint x="-2" y="43.02801843317973" as="sourcePoint" />
            <mxPoint x="64.60341555977237" y="43.05762354558641" as="targetPoint" />
          </mxGeometry>
        </mxCell>
        <mxCell id="ChCWkwDxSLC9hsaqk-i0-389" value="&lt;font style=&quot;font-size: 15px;&quot;&gt;Batch Normalisation&lt;/font&gt;" style="text;html=1;align=left;verticalAlign=middle;whiteSpace=wrap;rounded=0;fontFamily=Helvetica;fontSize=20;fontColor=default;" vertex="1" parent="ChCWkwDxSLC9hsaqk-i0-406">
          <mxGeometry x="66.60341555977226" y="31.33640552995393" width="134.68690702087284" height="23.502304147465438" as="geometry" />
        </mxCell>
        <mxCell id="ChCWkwDxSLC9hsaqk-i0-390" value="" style="shape=flexArrow;endArrow=classic;html=1;rounded=0;fontFamily=Helvetica;fontSize=20;fontColor=default;exitX=0.25;exitY=0.492;exitDx=0;exitDy=0;exitPerimeter=0;fillColor=#d5e8d4;strokeColor=#82b366;" edge="1" parent="ChCWkwDxSLC9hsaqk-i0-406">
          <mxGeometry width="50" height="50" relative="1" as="geometry">
            <mxPoint x="-2" y="74.36442396313367" as="sourcePoint" />
            <mxPoint x="64.60341555977237" y="74.39402907554057" as="targetPoint" />
          </mxGeometry>
        </mxCell>
        <mxCell id="ChCWkwDxSLC9hsaqk-i0-391" value="&lt;font style=&quot;font-size: 15px;&quot;&gt;ReLU&lt;/font&gt;" style="text;html=1;align=left;verticalAlign=middle;whiteSpace=wrap;rounded=0;fontFamily=Helvetica;fontSize=20;fontColor=default;" vertex="1" parent="ChCWkwDxSLC9hsaqk-i0-406">
          <mxGeometry x="66.60341555977226" y="62.672811059907836" width="134.68690702087284" height="23.502304147465438" as="geometry" />
        </mxCell>
        <mxCell id="ChCWkwDxSLC9hsaqk-i0-392" value="" style="shape=flexArrow;endArrow=classic;html=1;rounded=0;fontFamily=Helvetica;fontSize=20;fontColor=default;exitX=0.25;exitY=0.492;exitDx=0;exitDy=0;exitPerimeter=0;fillColor=#e6d0de;strokeColor=#996185;gradientColor=#d5739d;" edge="1" parent="ChCWkwDxSLC9hsaqk-i0-406">
          <mxGeometry width="50" height="50" relative="1" as="geometry">
            <mxPoint x="-2" y="105.70082949308758" as="sourcePoint" />
            <mxPoint x="64.60341555977237" y="105.73043460549428" as="targetPoint" />
          </mxGeometry>
        </mxCell>
        <mxCell id="ChCWkwDxSLC9hsaqk-i0-393" value="&lt;font style=&quot;font-size: 15px;&quot;&gt;Dropout&lt;/font&gt;" style="text;html=1;align=left;verticalAlign=middle;whiteSpace=wrap;rounded=0;fontFamily=Helvetica;fontSize=20;fontColor=default;" vertex="1" parent="ChCWkwDxSLC9hsaqk-i0-406">
          <mxGeometry x="66.60341555977226" y="94.00921658986175" width="134.68690702087284" height="23.502304147465438" as="geometry" />
        </mxCell>
        <mxCell id="ChCWkwDxSLC9hsaqk-i0-418" value="" style="group" vertex="1" connectable="0" parent="1">
          <mxGeometry x="148" y="240" width="80" height="160" as="geometry" />
        </mxCell>
        <mxCell id="ChCWkwDxSLC9hsaqk-i0-135" style="edgeStyle=orthogonalEdgeStyle;rounded=0;orthogonalLoop=1;jettySize=auto;html=1;exitX=0.5;exitY=1;exitDx=0;exitDy=0;entryX=1;entryY=0;entryDx=0;entryDy=0;fillColor=#fff2cc;strokeColor=#d6b656;strokeWidth=4;" edge="1" parent="ChCWkwDxSLC9hsaqk-i0-418" source="ChCWkwDxSLC9hsaqk-i0-7" target="ChCWkwDxSLC9hsaqk-i0-8">
          <mxGeometry relative="1" as="geometry">
            <Array as="points">
              <mxPoint x="40" y="160" />
            </Array>
          </mxGeometry>
        </mxCell>
        <mxCell id="ChCWkwDxSLC9hsaqk-i0-166" value="" style="group" vertex="1" connectable="0" parent="ChCWkwDxSLC9hsaqk-i0-418">
          <mxGeometry width="80" height="160" as="geometry" />
        </mxCell>
        <mxCell id="ChCWkwDxSLC9hsaqk-i0-4" value="" style="rounded=0;whiteSpace=wrap;html=1;fillColor=#fff2cc;strokeColor=#d6b656;" vertex="1" parent="ChCWkwDxSLC9hsaqk-i0-166">
          <mxGeometry width="40" height="80" as="geometry" />
        </mxCell>
        <mxCell id="ChCWkwDxSLC9hsaqk-i0-5" value="" style="rounded=0;whiteSpace=wrap;html=1;fillColor=#fff2cc;strokeColor=#d6b656;" vertex="1" parent="ChCWkwDxSLC9hsaqk-i0-166">
          <mxGeometry x="40" width="40" height="80" as="geometry" />
        </mxCell>
        <mxCell id="ChCWkwDxSLC9hsaqk-i0-6" value="" style="rounded=0;whiteSpace=wrap;html=1;fillColor=#fff2cc;strokeColor=#d6b656;" vertex="1" parent="ChCWkwDxSLC9hsaqk-i0-166">
          <mxGeometry y="80" width="40" height="80" as="geometry" />
        </mxCell>
        <mxCell id="ChCWkwDxSLC9hsaqk-i0-7" value="" style="rounded=0;whiteSpace=wrap;html=1;fillColor=#fff2cc;strokeColor=#d6b656;" vertex="1" parent="ChCWkwDxSLC9hsaqk-i0-166">
          <mxGeometry x="40" y="80" width="40" height="80" as="geometry" />
        </mxCell>
        <mxCell id="ChCWkwDxSLC9hsaqk-i0-321" value="&amp;nbsp;" style="text;whiteSpace=wrap;html=1;" vertex="1" parent="ChCWkwDxSLC9hsaqk-i0-418">
          <mxGeometry x="10" y="10" width="40" height="40" as="geometry" />
        </mxCell>
      </root>
    </mxGraphModel>
  </diagram>
</mxfile>
